<svg width="40" height="40" viewBox="0 0 40 40" fill="none" xmlns="http://www.w3.org/2000/svg">
<circle cx="20" cy="20" r="20" fill="#FF07AA"/>
<path d="M27.1014 22.7853L21.0819 10.0648L20.0381 8L19.0455 10.0648L10.1334 28.8H12.4381L13.5478 26.3322L14.6746 23.8817L17.6333 17.1737L20.0381 12.16L25.3356 23.8817L25.8894 25.0755L27.6233 28.8H29.9429L27.1014 22.7853Z" fill="white"/>
<path d="M27.1014 22.7853L21.0819 10.0648L20.0381 8L19.0455 10.0648L10.1334 28.8H12.4381L13.5478 26.3322L14.6746 23.8817L17.6333 17.1737L20.0381 12.16L25.3356 23.8817L25.8894 25.0755L27.6233 28.8H29.9429L27.1014 22.7853Z" stroke="white"/>
</svg>
