<svg width="11" height="10" viewBox="0 0 11 10" fill="none" xmlns="http://www.w3.org/2000/svg">
<path d="M4.36226 0.669796L4.87062 0.161438C5.08587 -0.0538127 5.43394 -0.0538127 5.6469 0.161438L10.0985 4.61072C10.3137 4.82597 10.3137 5.17403 10.0985 5.38699L5.6469 9.83856C5.43165 10.0538 5.08358 10.0538 4.87062 9.83856L4.36226 9.3302C4.14472 9.11266 4.1493 8.75773 4.37142 8.54477L7.13075 5.91596H0.549576C0.245019 5.91596 0 5.67094 0 5.36638V4.63362C0 4.32906 0.245019 4.08404 0.549576 4.08404H7.13075L4.37142 1.45523C4.14701 1.24227 4.14243 0.887337 4.36226 0.669796Z" fill="white"/>
</svg>
